<?xml version="1.0" encoding="UTF-8" standalone="no"?>
<!DOCTYPE svg PUBLIC "-//W3C//DTD SVG 1.1//EN" "http://www.w3.org/Graphics/SVG/1.1/DTD/svg11.dtd">
<svg width="100%" height="100%" viewBox="0 0 571 498" version="1.1" xmlns="http://www.w3.org/2000/svg" xmlns:xlink="http://www.w3.org/1999/xlink" xml:space="preserve" xmlns:serif="http://www.serif.com/" style="fill-rule:evenodd;clip-rule:evenodd;stroke-linejoin:round;stroke-miterlimit:2;">
    <g transform="matrix(1,0,0,1,-658.233,-502.723)">
        <g transform="matrix(0.1,0,0,-0.1,0,2000)">
            <g transform="matrix(10,0,0,-10,220.572,21346)">
                <path d="M999,966L999,1132.9L1002.3,1133.2C1004,1133.4 959.8,1133.8 904,1134.1C848.2,1134.4 802.4,1134.6 802.4,1134.6C802.3,1134.5 802,1096.6 801.8,1050.2L801.4,966L999,966ZM1206.2,1049.2C1206.4,1095 1206.5,1132.6 1206.5,1132.6C1206.5,1132.7 1161.8,1133.1 1107.3,1133.5L1008,1134.2L1008,966L1205.9,966L1206.2,1049.2ZM1206,867L1206,957L801,957L801,867L1206,867ZM716,712.6C716,713 713.2,716.2 709.9,719.8C702.6,727.6 699.6,733.6 699.6,740.5C699.6,747.6 703.7,756.1 708.9,759.7C712.8,762.4 712.9,762.7 713,768C713.1,774.6 715.5,780.3 720.1,784.9C723.6,788.5 730.2,791.9 733.4,792C735,792 735.1,792.5 734.6,796.7C733.3,805.6 733.9,805.5 723.7,800C713.1,794.4 706.8,792.4 697.3,791.5C689.5,790.8 675.9,792.9 671.4,795.4C668.6,797.1 668.7,797.1 676.5,796.7C691.6,795.8 708.6,798.7 718.5,803.7C722.7,805.9 733,813.1 733,814C733,814.3 730.7,815.2 727.9,815.8C720.8,817.5 712.7,821.7 708.8,825.7L705.5,829.2L709.5,827.2C715.4,824.3 722.9,822 731.2,820.7L738.5,819.4L739.2,809.9C740.5,791.7 744.4,780.5 752.3,772.6C760,764.9 773.3,761 778.2,765C780.4,766.7 780.5,767.5 780.4,777.7C780.3,791.3 774.3,845.5 772.5,848.9C770.3,853.2 767.9,854.8 754.4,860.6C731.5,870.5 725,872.3 713,872.3C681.5,872.3 657.3,858.8 645.6,834.8C639,821.3 636.9,812.3 636.3,795.5C635.7,778.9 637.2,770.5 642.4,759.7C649.5,745.1 660.7,734.5 679.3,724.9C692.3,718.2 716,710.3 716,712.6ZM1119.6,641.3C1123.4,645.4 1125.4,651.9 1124.6,656.9C1123.8,661.8 1119.9,665.4 1111.6,668.8C1065,688 891.1,759.9 870.5,768.5C833.6,783.9 813.4,793.8 809,798.4C805.7,801.9 805.6,802.2 807.3,803.5C811.2,806.3 826.2,808.1 851.8,808.7L877.2,809.3L842.5,844L830.9,844C817.2,844 801.1,845.5 788.3,847.9C782,849.1 779,849.3 779,848.6C779,848 779.6,845.2 780.4,842.3C781.2,839.5 782.3,832.5 782.9,826.8C783.5,821.1 784.7,810 785.6,802C786.5,794 787,782.4 786.8,776.2L786.5,764.8L849.5,739.6C884.2,725.7 953.7,697.7 1004,677.5C1054.3,657.2 1098,639.9 1101,638.8C1104.4,637.7 1108.4,637.1 1111.4,637.4C1115.6,637.7 1116.9,638.3 1119.6,641.3ZM1065,810.7C1065,811.1 1057.9,818.6 1049.3,827.2L1033.5,843L999.8,843C981.2,843 966,842.7 966,842.3C966,841.9 973.1,834.4 981.7,825.8L997.5,810L1031.2,810C1049.8,810 1065,810.3 1065,810.7ZM962,810L971.5,810L938.5,843L869.5,843L903.5,808.8L928,809.4C941.5,809.7 956.8,810 962,810ZM1140.5,811L1160.5,811L1145.1,826.4L1129.7,841.9L1095.6,842.2C1076.8,842.4 1061.3,842.4 1061,842.2C1060.8,842.1 1067.8,834.7 1076.5,825.9L1092.5,809.8L1106.5,810.4C1114.2,810.7 1129.5,811 1140.5,811ZM1195.5,813.6C1200,815.7 1202,819.8 1202,826.7C1202,830.8 1201.4,833.5 1200,835.8C1196.7,841.2 1193.3,842 1173.3,842L1155.5,842L1170.9,826.6C1187.8,809.7 1187.3,809.9 1195.5,813.6ZM800.2,722.1C804.5,724.4 810,735.2 810,741.5C810,748.5 809,749.4 796.3,754.5C786.1,758.5 783.9,759.1 780.5,758.4C778.3,758 774,757.6 771,757.6C759.6,757.4 746.7,766.8 739.9,780.2C736.7,786.5 735.9,786.8 730.2,784.5C722.7,781.3 719,775.9 719,768C719,758.4 722.6,754.1 739.8,743.4C769.3,724.7 790.7,717.2 800.2,722.1ZM774,697.6C776.9,698.8 778.8,700.5 780.6,703.5C783.6,708.7 785,713.3 784.1,714.9C783.7,715.5 776.4,719.3 767.9,723.3C746.9,733.3 728.4,744.6 720.3,752.3C716.5,756 715.7,756.3 713.3,755.4C706.8,753.2 703.9,739.3 707.9,730.3C713.3,718.5 735.5,703.1 754.8,697.9C763.2,695.6 768.9,695.6 774,697.6Z" style="fill:url(#_Radial1);"/>
            </g>
        </g>
    </g>
    <defs>
        <radialGradient id="_Radial1" cx="0" cy="0" r="1" gradientUnits="userSpaceOnUse" gradientTransform="matrix(570.324,0,0,497.277,636.176,885.962)"><stop offset="0" style="stop-color:black;stop-opacity:1"/><stop offset="1" style="stop-color:black;stop-opacity:1"/></radialGradient>
    </defs>
</svg>
